<svg xmlns="http://www.w3.org/2000/svg" width="18" height="18" viewBox="0 0 18 18"><path d="M.643,7.525H17.357A.693.693,0,0,0,18,6.79V4.953a.693.693,0,0,0-.643-.735H.643A.693.693,0,0,0,0,4.953V6.79A.693.693,0,0,0,.643,7.525Zm0,7.347H17.357A.693.693,0,0,0,18,14.137V12.3a.693.693,0,0,0-.643-.735H.643A.693.693,0,0,0,0,12.3v1.837A.693.693,0,0,0,.643,14.872Zm0,7.347H17.357A.693.693,0,0,0,18,21.484V19.647a.693.693,0,0,0-.643-.735H.643A.693.693,0,0,0,0,19.647v1.837A.693.693,0,0,0,.643,22.219Z" transform="translate(0 -4.219)"/></svg>