<svg xmlns="http://www.w3.org/2000/svg" width="20" height="18" viewBox="0 0 20 18"><path d="M9.734,6.923l-6.4,6.1v6.586a.6.6,0,0,0,.556.643l3.891-.012a.6.6,0,0,0,.553-.643V15.753a.6.6,0,0,1,.556-.643h2.222a.6.6,0,0,1,.556.643V19.6a.7.7,0,0,0,.162.456.52.52,0,0,0,.393.189l3.889.012a.6.6,0,0,0,.556-.643v-6.59l-6.4-6.1A.379.379,0,0,0,9.734,6.923ZM19.845,11.07,16.943,8.3V2.736a.453.453,0,0,0-.417-.482H14.582a.453.453,0,0,0-.417.482V5.653l-3.108-2.96a1.5,1.5,0,0,0-2.118,0L.15,11.07a.536.536,0,0,0-.056.679L.98,13a.4.4,0,0,0,.282.174.379.379,0,0,0,.305-.108L9.734,5.276a.379.379,0,0,1,.531,0l8.167,7.785A.379.379,0,0,0,19.019,13l.885-1.246A.536.536,0,0,0,20,11.4a.508.508,0,0,0-.152-.326Z" transform="translate(0.001 -2.254)"/></svg>